<svg width="82" height="65" viewBox="0 0 82 65" fill="none" xmlns="http://www.w3.org/2000/svg">
<path d="M40.4721 9.07698C41.0477 9.40282 41.7906 9.25047 42.1533 8.70521L43.5409 6.61925C43.9861 5.94993 43.7962 5.05192 43.0897 4.65195C42.3832 4.25198 41.4886 4.53639 41.1174 5.24761L39.9606 7.46416C39.6582 8.04357 39.8965 8.75114 40.4721 9.07698Z" fill="#FFD400"/>
<path d="M28.9713 6.06567C29.6364 6.06567 30.2028 5.5692 30.2371 4.91941L30.3683 2.42984C30.4102 1.63475 29.7851 0.953125 28.9713 0.953125C28.1574 0.953125 27.5323 1.63475 27.5742 2.42984L27.7055 4.91941C27.7397 5.5692 28.3061 6.06567 28.9713 6.06567Z" fill="#FFD400"/>
<path d="M17.4704 9.07698C18.046 8.75114 18.2843 8.04357 17.9819 7.46417L16.8251 5.24762C16.4539 4.5364 15.5593 4.25198 14.8528 4.65195C14.1463 5.05192 13.9564 5.94993 14.4016 6.61925L15.7892 8.70521C16.1519 9.25047 16.8949 9.40282 17.4704 9.07698Z" fill="#FFD400"/>
<path d="M9.05439 17.3101C9.38747 16.747 9.23174 16.0202 8.67436 15.6654L6.54204 14.308C5.85785 13.8724 4.93988 14.0582 4.53102 14.7494C4.12216 15.4405 4.4129 16.3157 5.13993 16.6788L7.40573 17.8104C7.99801 18.1062 8.72131 17.8731 9.05439 17.3101Z" fill="#FFD400"/>
<path d="M4.80443 27.3226C5.46866 27.3561 5.97616 27.9102 5.97616 28.5609C5.97616 29.2115 5.46866 29.7656 4.80442 29.7991L2.25953 29.9275C1.44677 29.9685 0.75 29.357 0.75 28.5609C0.75 27.7647 1.44677 27.1532 2.25953 27.1942L4.80443 27.3226Z" fill="#FFD400"/>
<path d="M42.0756 14.6506C38.6302 11.5428 34.0273 9.64447 28.9713 9.64447C18.2919 9.64447 9.63449 18.1136 9.63449 28.5609C9.63449 29.3243 9.68072 30.0772 9.77059 30.817C12.8958 28.8179 16.631 27.6557 20.6437 27.6557C22.271 27.6557 23.8549 27.8473 25.3722 28.2093C28.731 21.6846 34.769 16.7029 42.0756 14.6506Z" fill="#FFD400"/>
<path d="M20.6437 64.3152C10.9343 64.3152 3.06323 56.6153 3.06323 47.1169C3.06323 37.6186 10.9343 29.9186 20.6437 29.9186C22.749 29.9186 24.7679 30.2807 26.6388 30.9445C30.3302 22.1118 39.2016 15.8885 49.5589 15.8885C63.2288 15.8885 74.3104 26.7292 74.3104 40.1018C74.3104 40.6909 74.2889 41.2751 74.2466 41.8537C78.3804 43.7157 81.25 47.804 81.25 52.548C81.25 59.0468 75.8646 64.3152 69.2213 64.3152H20.6437Z" fill="white"/>
</svg>
